<?xml version="1.0" encoding="utf-8"?>
<!-- Generator: Adobe Illustrator 22.0.1, SVG Export Plug-In . SVG Version: 6.00 Build 0)  -->
<svg version="1.1" id="Layer_1" xmlns="http://www.w3.org/2000/svg" xmlns:xlink="http://www.w3.org/1999/xlink" x="0px" y="0px"
	 viewBox="0 0 71.3 58" style="enable-background:new 0 0 71.3 58;" xml:space="preserve">
<style type="text/css">
	.st0{fill:#0F58EA;}
</style>
<path class="st0" d="M70.3,22.3h-6.8h-1.5H50.1l-4.5,6.7c-2.3,3.4-6.1,5.3-10,5.3c-2.3,0-4.6-0.7-6.7-2c-3.4-2.3-5.3-6.1-5.3-9.9
	H9.3H7.5H1c-0.5,0-1,0.5-1,1V27c0,0.6,0.5,1,1,1h4c0.5,0,1.1,0.4,1.3,1l7.9,28.1c0.1,0.5,0.7,1,1.3,1h40.2c0.5,0,1.1-0.4,1.3-1
	L65,29c0.2-0.5,0.7-1,1.3-1h4.1c0.5,0,1-0.4,1-1v-3.7C71.3,22.7,70.8,22.3,70.3,22.3z"/>
<path class="st0" d="M33.5,25.6c0.7,0.5,1.5,0.7,2.2,0.7c1.3,0,2.6-0.6,3.3-1.8L51.3,6.2c1.2-1.8,0.7-4.3-1.1-5.6
	c-1.8-1.2-4.3-0.7-5.6,1.1L32.4,20C31.1,21.9,31.6,24.3,33.5,25.6z"/>
</svg>
