<?xml version="1.0" encoding="utf-8"?>
<!-- Generator: Adobe Illustrator 22.0.1, SVG Export Plug-In . SVG Version: 6.00 Build 0)  -->
<svg version="1.1" id="Layer_1" xmlns="http://www.w3.org/2000/svg" xmlns:xlink="http://www.w3.org/1999/xlink" x="0px" y="0px"
	 viewBox="0 0 17.6 17.9" style="enable-background:new 0 0 17.6 17.9;" xml:space="preserve">
<style type="text/css">
	.st0{fill:#0F58EA;}
</style>
<path d="M3.8,1.5V0L3.6,0c-0.9,0-1.7,0.3-2.2,1V0.1H0v6.5h1.4V4c0-1.5,0.8-2.5,2.1-2.5H3.8z"/>
<path d="M10,5.6l0.2-0.2L9.3,4.6L9.1,4.7c-0.5,0.5-1,0.8-1.7,0.8C6.4,5.5,5.7,4.9,5.5,4h4.7l0-0.2c0-0.1,0-0.2,0-0.3
	C10.3,1.4,9,0,7.2,0C5.5,0,4.1,1.5,4.1,3.4c0,1.9,1.4,3.4,3.3,3.4C8.4,6.8,9.3,6.4,10,5.6z M7.2,1.3c1,0,1.5,0.8,1.6,1.6H5.5
	C5.7,1.9,6.4,1.3,7.2,1.3z"/>
<path d="M16.2,0.1v0.7C15.6,0.3,14.9,0,14.1,0C12.6,0,11,1.2,11,3.1c0,1.9,1.6,3.1,3.1,3.1c0.8,0,1.5-0.3,2.1-0.9v0.1
	c0,1.2-0.7,1.9-1.9,1.9c-0.8,0-1.5-0.2-2.2-0.7l-0.2-0.2l-0.7,1.1l0.2,0.1c0.8,0.6,1.8,0.9,2.9,0.9c1,0,1.9-0.3,2.5-0.9
	c0.6-0.6,0.8-1.3,0.8-2.3V0.1H16.2z M16.2,3.1c0,1.1-1,1.8-2,1.8c-1.1,0-1.8-0.8-1.8-1.8c0-1,0.8-1.8,1.8-1.8
	C15.2,1.3,16.2,2,16.2,3.1L16.2,3.1z"/>
<rect x="0.1" y="8.7" class="st0" width="1.4" height="9"/>
<rect x="3.4" y="11.2" class="st0" width="1.4" height="6.5"/>
<rect x="3.3" y="8.9" class="st0" width="1.6" height="1.5"/>
<path class="st0" d="M8.3,9.4H6.9v1.8H6v1.3h0.9v3.4c0,1.2,0.8,1.9,2.1,1.9c0.5,0,0.9-0.1,1.3-0.3l0.1-0.1v-1.3L10,16.3
	c-0.3,0.1-0.5,0.2-0.8,0.2c-0.6,0-0.8-0.2-0.8-0.8v-3.3h2v-1.3h-2V9.4z"/>
<path class="st0" d="M14.3,11.1c-1.9,0-3.3,1.5-3.3,3.4c0,1.9,1.5,3.4,3.5,3.4c1.2,0,2-0.4,2.8-1.2l0.2-0.2l-1-0.8l-0.2,0.2
	c-0.6,0.5-1.1,0.8-1.9,0.8c-1,0-1.8-0.6-2-1.6h5l0-0.2c0-0.1,0-0.2,0-0.3C17.6,12.5,16.3,11.1,14.3,11.1z M12.5,13.9
	c0.2-0.9,0.9-1.6,1.8-1.6c1.1,0,1.6,0.8,1.8,1.6H12.5z"/>
</svg>
